<?xml version="1.0" encoding="UTF-8"?>
<svg version="1.1" xmlns="http://www.w3.org/2000/svg" width="2400" height="1304">
<path d="M0 0 C5.79156027 0.00758022 11.5830524 0.00477922 17.37461025 -0.00360405 C54.70616863 -0.05618926 91.95590386 0.10455753 129.24532634 2.12959754 C131.47377863 2.24995441 133.70241016 2.36561084 135.93122035 2.479123 C144.26484867 2.90707869 152.59251105 3.40006386 160.91928798 3.94463813 C162.19670863 4.0273899 163.47412929 4.11014167 164.79025966 4.19540107 C245.80489729 9.47156525 326.57512157 17.76313926 446.97006923 30.11651313 C448.53959989 30.27909107 450.10913102 30.44166457 451.6786626 30.60423362 C454.03198103 30.84798687 456.38529943 31.0917405 458.73861694 31.33550262 C467.34046166 32.22648882 475.94233536 33.11719427 484.54428798 34.00713813 C485.31566207 34.08694514 486.08703615 34.16675214 486.88178521 34.24897754 C576.76503039 43.54664627 666.77930382 52.58778671 773.41892177 58.10284126 C776.54143418 58.25397492 779.66346746 58.41281055 782.78549892 58.57354438 C813.6143356 60.1387594 844.42460061 60.46387693 875.28692561 60.50256431 C878.22878265 60.50703851 881.170616 60.51473112 884.11246425 60.52309883 C919.75401371 60.61073475 955.41313109 59.74802727 990.91928798 56.44463813 C991.84996089 56.36099006 992.7806338 56.27734199 993.73950893 56.19115913 C1016.81982685 54.11194698 1039.75790086 51.10646332 1062.69272548 47.81573188 C1100.3365703 42.42161657 1138.06786631 38.01265396 1175.98178798 35.00713813 C1176.93899745 34.93009651 1177.89620692 34.85305488 1178.88242275 34.77367866 C1186.11973616 34.19865967 1193.36072084 33.70784872 1200.60678798 33.25713813 C1201.28666019 33.21439262 1201.96653239 33.17164711 1202.66700679 33.12760627 C1228.73364532 31.4992823 1254.72863962 30.93528222 1280.84360439 30.99639595 C1285.75467989 31.00780521 1290.66553883 31.00098476 1295.57660705 30.98951709 C1327.5964894 30.92617662 1359.53112025 31.87376457 1391.41928798 34.94463813 C1392.70307338 35.06577476 1392.70307338 35.06577476 1394.01279384 35.18935859 C1432.61088311 38.87518833 1471.2020694 44.4776096 1508.79819423 54.07354438 C1509.7665269 54.31992652 1510.73485957 54.56630867 1511.73253566 54.82015693 C1516.4625298 56.02775546 1521.18529231 57.25607531 1525.89902431 58.52569282 C1536.59928473 61.35286596 1546.95014337 63.05651403 1557.99277431 63.84331977 C1577.92039515 65.36630117 1595.47468405 75.31233391 1608.90756923 89.72588813 C1656.31334801 146.42872256 1654.84861223 241.46236268 1657.95024687 311.67363465 C1658.04604818 313.83990874 1658.14263426 316.00614684 1658.23932773 318.17238128 C1659.54796158 347.56185352 1660.59235433 376.95869514 1661.59227592 406.36000812 C1664.19012317 482.68931159 1667.74050741 558.69124274 1675.34116298 634.72198188 C1685.65235509 737.93824864 1691.01873236 841.64223005 1608.56772548 1191.07354438 C1599.85285487 1201.64013182 1590.2147497 1210.8824707 1578.60678798 1218.25713813 C1577.58198329 1218.91584907 1576.5571786 1219.57456001 1575.50131923 1220.25323188 C1558.74211792 1230.45532336 1540.88013856 1233.8174735 1521.60678798 1236.25713813 C1520.54701747 1236.39216743 1519.48724696 1236.52719673 1518.3953622 1236.66631782 C1501.91517736 1238.68429964 1485.36726569 1239.71600037 1468.79819423 1240.66729438 C1467.14118369 1240.76306203 1467.14118369 1240.76306203 1465.4506982 1240.86076438 C1445.99435624 1241.97660652 1426.53082697 1242.87511035 1407.05991298 1243.68682563 C1406.35171295 1243.71637014 1405.64351291 1243.74591464 1404.91385227 1243.77635443 C1392.45287094 1244.29551518 1379.99141108 1244.80295623 1367.52982265 1245.30730903 C1270.80880527 1249.22272382 1174.22970047 1254.92040135 1077.63437587 1261.18316352 C1060.12694968 1262.31800808 1042.61918124 1263.44736331 1025.11069423 1264.56573188 C1023.27024107 1264.6833405 1023.27024107 1264.6833405 1021.39260703 1264.80332506 C982.29452694 1267.29872599 943.18704528 1269.55692107 904.06381923 1271.62041938 C902.88618172 1271.68262884 901.70854421 1271.7448383 900.49522072 1271.8089329 C849.69061473 1274.48978339 798.88146405 1276.76347201 748.02947932 1278.31947029 C746.07967095 1278.37914251 744.12988057 1278.43940167 742.1800912 1278.49969184 C732.65649397 1278.78951641 723.13218359 1279.03597104 713.60678798 1279.25713813 C712.69077312 1279.27851089 711.77475826 1279.29988365 710.83098537 1279.32190406 C676.2958748 1280.11949721 641.77372576 1280.41870765 607.22983485 1280.38750923 C600.87856562 1280.38181266 594.52733833 1280.38521194 588.17607051 1280.39094818 C544.14269121 1280.42462108 500.11543025 1279.92828443 456.10678798 1278.38213813 C454.89538142 1278.34045509 453.68397487 1278.29877204 452.43585902 1278.25582588 C367.29749571 1275.30532138 282.1614414 1270.06519771 117.34116298 1252.73370063 C116.4021313 1252.62677076 115.46309963 1252.51984088 114.49561244 1252.40967071 C112.59422431 1252.19315345 110.69283678 1251.97663091 108.79144984 1251.76010311 C67.43391122 1247.05103149 26.09581591 1242.64609339 -15.39321202 1239.25713813 C-16.05914372 1239.20255188 -16.72507542 1239.14796562 -17.41118687 1239.09172523 C-76.79054884 1234.2258533 -136.23443818 1230.83795857 -195.76821202 1228.56963813 C-196.57027577 1228.53888946 -197.37233952 1228.50814079 -198.19870824 1228.47646034 C-198.98529317 1228.44636123 -199.7718781 1228.41626213 -200.58229893 1228.38525093 C-201.26440686 1228.35913105 -201.94651479 1228.33301116 -202.64929265 1228.30609977 C-212.08199409 1227.95278523 -221.51555584 1227.63578497 -230.95007461 1227.33527148 C-232.50497459 1227.28554462 -234.05985825 1227.23530253 -235.61471933 1227.18437397 C-269.25779386 1226.08365624 -302.89820467 1226.15176602 -336.55422126 1226.21712314 C-344.65236441 1226.23241583 -352.75051 1226.23979841 -360.8486642 1226.24641734 C-375.29995966 1226.25824823 -389.75124962 1226.2731558 -404.20253819 1226.29156196 C-405.06007444 1226.29265208 -405.9176107 1226.29374221 -406.8011329 1226.29486536 C-416.39976048 1226.30717703 -425.99838532 1226.32075016 -435.59700841 1226.33617866 C-436.4647189 1226.33757311 -437.33242938 1226.33896756 -438.22643413 1226.34040427 C-439.9777908 1226.34322329 -441.72914747 1226.34604294 -443.48050413 1226.34886324 C-444.77908775 1226.35095321 -444.77908775 1226.35095321 -446.10390538 1226.3530854 C-446.96854064 1226.35447893 -447.83317589 1226.35587246 -448.72401222 1226.35730822 C-463.16809894 1226.38038303 -477.61218165 1226.39566717 -492.05628395 1226.40464479 C-500.91873646 1226.41046425 -509.7811321 1226.42273931 -518.64356218 1226.44361757 C-524.70121082 1226.45737931 -530.75883974 1226.46382146 -536.81650385 1226.46462769 C-540.30012296 1226.46532718 -543.78365735 1226.46921626 -547.26725453 1226.48209083 C-573.0640031 1226.5657263 -591.38949961 1226.13192372 -610.42836827 1207.31573188 C-669.13942557 1147.40380924 -657.12872626 1030.83357194 -658.85414952 941.49932563 C-660.26642151 866.88478824 -662.92323162 792.60561687 -668.43227452 718.17120063 C-668.77467255 713.53327112 -669.11581499 708.89525161 -669.45571202 704.25713813 C-669.5387357 703.12606636 -669.62175938 701.99499458 -669.70729893 700.8296479 C-671.08376746 681.94177782 -672.15759828 663.04651428 -673.08071202 644.13213813 C-673.14146916 642.8949604 -673.2022263 641.65778266 -673.26482457 640.3831147 C-674.63362314 612.23411936 -675.55305064 584.12812117 -675.56118077 555.94463813 C-675.56261404 554.60399057 -675.56421208 553.26334318 -675.56596631 551.92269599 C-675.57512286 544.89289643 -675.57931419 537.86311534 -675.57851475 530.83331001 C-675.57798435 525.14447904 -675.58500634 519.45571717 -675.59902257 513.76690376 C-675.68132458 479.55444318 -675.4005491 445.42312345 -673.39321202 411.25713813 C-673.35320702 410.5664096 -673.31320203 409.87568107 -673.27198476 409.16402137 C-672.79674286 401.00012367 -672.22636812 392.84668578 -671.58071202 384.69463813 C-671.49706395 383.61389015 -671.41341588 382.53314216 -671.32723302 381.41964424 C-664.72079042 296.49469213 -653.34013968 208.17383394 -576.75161046 77.79522407 C-559.76297241 63.36797977 -541.3647291 55.05053416 -519.89321202 49.88213813 C-519.12620976 49.69426734 -518.3592075 49.50639656 -517.56896275 49.31283271 C-498.95514645 44.75657453 -480.21389171 40.85397122 -461.39321202 37.25713813 C-460.53572362 37.09320564 -459.67823521 36.92927314 -458.79476231 36.760373 C-359.53463879 17.86722249 -258.52300362 8.45617357 0 0 Z " fill="#FFDD58" transform="translate(690.3932120203972,1.7428618669509888)"/>
</svg>
